<svg xmlns="http://www.w3.org/2000/svg" width="36" height="36" viewBox="0 0 24 24" fill="currentColor">
  <path d="M.057 24l1.687-6.163c-3.104-5.385-1.485-12.787 3.8-15.86 5.385-3.085 12.787-1.485 15.86 3.8 3.085 5.385 1.485 12.787-3.8 15.86-1.526.885-3.23 1.34-4.885 1.34-1.393 0-2.8-.323-4.103-1.017L.057 24zm4.05-6.85l.551.328c3.21 1.91 7.218 1.157 9.423-1.815 1.868-2.52 1.378-5.99-1.076-7.904-2.454-1.92-6.1-1.5-7.96.953-1.91 3.21-1.157 7.218 1.815 9.423l.36.216-1.127 4.12 4.12-1.126h-.008l-5.698-2.195z"/>
  <path d="M12.01 2c-5.522 0-10 4.478-10 10 0 1.77.476 3.427 1.296 4.88L2.05 21l4.24-1.11c1.397.74 2.972 1.137 4.606 1.137 6.07 0 11.002-4.932 11.002-11.002 0-5.522-4.478-10-10-10zm0 18.002c-1.464 0-2.875-.38-4.127-1.04l-.296-.156-3.064.802.818-2.99-.174-.275C4.28 15.02 3.824 13.56 3.824 12c0-4.522 3.678-8.2 8.186-8.2 4.522 0 8.202 3.678 8.202 8.2s-3.68 8.202-8.202 8.202zm4.49-6.138c-.247-.123-1.465-.723-1.692-.806-.227-.082-.392-.123-.556.124-.165.247-.64.805-.783.97-.144.164-.29.185-.536.062-.247-.124-1.045-.385-1.99-1.228-.737-.657-1.234-1.468-1.38-1.715-.144-.247-.015-.38.108-.503.11-.11.247-.29.37-.433.124-.144.165-.247.248-.412.082-.165.04-.31-.02-.433-.063-.124-.557-1.34-.763-1.835-.2-.49-.405-.424-.557-.432l-.474-.008c-.165 0-.433.062-.66.31-.226.246-.865.844-.865 2.06 0 1.215.886 2.39 1.01 2.553.123 1.155 1.773 2.66 4.296 3.745.602.257 1.07.412 1.432.527.6.19 1.146.163 1.57.1.472-.07 1.465-.6 1.67-.1.18-.205.577-.205 1.07-.205 1.34-.144.205-.29.288-.638.452z"/>
</svg>
